{
  "asset": {
    "version": "2.0",
    "generator": "THREE.GLTFExporter"
  },
  "scenes": [
    {
      "nodes": [
        0
      ]
    }
  ],
  "scene": 0,
  "nodes": [
    {
      "children": [
        11
      ],
      "matrix": [
        0.01,
        0,
        0,
        0,
        0,
        0.01,
        0,
        0,
        0,
        0,
        0.01,
        0,
        0,
        0,
        0,
        1
      ]
    },
    {
      "name": "086f883c-64b5-4b8f-9527-30fe971b78ef.jpg",
      "mesh": 0
    },
    {
      "matrix": [
        1,
        0,
        0,
        0,
        0,
        1,
        0,
        0,
        0,
        0,
        1,
        0,
        -0.17412595450878143,
        -0.03145722672343254,
        0.4368237555027008,
        1
      ],
      "name": "card",
      "mesh": 1
    },
    {
      "matrix": [
        1,
        0,
        0,
        0,
        0,
        1,
        0,
        0,
        0,
        0,
        1,
        0,
        -0.17412595450878143,
        -0.03145722672343254,
        0.4368237555027008,
        1
      ],
      "name": "clip",
      "mesh": 2
    },
    {
      "matrix": [
        1,
        0,
        0,
        0,
        0,
        1,
        0,
        0,
        0,
        0,
        1,
        0,
        -0.17412595450878143,
        -0.03145722672343254,
        0.4368237555027008,
        1
      ],
      "name": "clamp",
      "mesh": 3
    },
    {
      "name": "Scene",
      "children": [
        2,
        3,
        4
      ]
    },
    {
      "name": "AuxScene_1_1",
      "children": [
        5
      ]
    },
    {
      "matrix": [
        1,
        0,
        0,
        0,
        0,
        1,
        0,
        0,
        0,
        0,
        1,
        0,
        0.2533576512336731,
        -0.0965172004699707,
        0,
        1
      ],
      "name": "AuxScene_1",
      "children": [
        6
      ]
    },
    {
      "matrix": [
        82.88678039816367,
        0,
        0,
        0,
        0,
        82.88678039816367,
        0,
        0,
        0,
        0,
        82.88678039816367,
        0,
        -16,
        -31,
        0,
        1
      ],
      "name": "card 2",
      "children": [
        7
      ]
    },
    {
      "matrix": [
        1,
        0,
        0,
        0,
        0,
        1,
        -5.97529576784534e-17,
        0,
        0,
        5.97529576784534e-17,
        1,
        0,
        35.227029544799706,
        20.26510148669383,
        229.55621749868968,
        1
      ],
      "camera": 0
    },
    {
      "matrix": [
        1,
        0,
        0,
        0,
        0,
        1,
        0,
        0,
        0,
        0,
        1,
        0,
        0,
        1,
        0,
        1
      ],
      "name": "Default Ambient Light"
    },
    {
      "name": "Scene",
      "children": [
        1,
        8,
        9,
        10
      ]
    }
  ],
  "bufferViews": [
    {
      "buffer": 0,
      "byteOffset": 0,
      "byteLength": 48,
      "target": 34962,
      "byteStride": 12
    },
    {
      "buffer": 0,
      "byteOffset": 48,
      "byteLength": 48,
      "target": 34962,
      "byteStride": 12
    },
    {
      "buffer": 0,
      "byteOffset": 96,
      "byteLength": 32,
      "target": 34962,
      "byteStride": 8
    },
    {
      "buffer": 0,
      "byteOffset": 128,
      "byteLength": 24,
      "target": 34963
    },
    {
      "buffer": 0,
      "byteOffset": 152,
      "byteLength": 13968,
      "target": 34962,
      "byteStride": 12
    },
    {
      "buffer": 0,
      "byteOffset": 14120,
      "byteLength": 13968,
      "target": 34962,
      "byteStride": 12
    },
    {
      "buffer": 0,
      "byteOffset": 28088,
      "byteLength": 9312,
      "target": 34962,
      "byteStride": 8
    },
    {
      "buffer": 0,
      "byteOffset": 37400,
      "byteLength": 8216,
      "target": 34963
    },
    {
      "buffer": 0,
      "byteOffset": 45616,
      "byteLength": 13548,
      "target": 34962,
      "byteStride": 12
    },
    {
      "buffer": 0,
      "byteOffset": 59164,
      "byteLength": 13548,
      "target": 34962,
      "byteStride": 12
    },
    {
      "buffer": 0,
      "byteOffset": 72712,
      "byteLength": 9032,
      "target": 34962,
      "byteStride": 8
    },
    {
      "buffer": 0,
      "byteOffset": 81744,
      "byteLength": 7152,
      "target": 34963
    },
    {
      "buffer": 0,
      "byteOffset": 88896,
      "byteLength": 20652,
      "target": 34962,
      "byteStride": 12
    },
    {
      "buffer": 0,
      "byteOffset": 109548,
      "byteLength": 20652,
      "target": 34962,
      "byteStride": 12
    },
    {
      "buffer": 0,
      "byteOffset": 130200,
      "byteLength": 13768,
      "target": 34962,
      "byteStride": 8
    },
    {
      "buffer": 0,
      "byteOffset": 143968,
      "byteLength": 14328,
      "target": 34963
    }
  ],
  "buffers": [
    {
      "byteLength": 158296,
      "uri": "data:application/octet-stream;base64,"
    }
  ],
  "accessors": [
    {
      "bufferView": 0,
      "componentType": 5126,
      "count": 4,
      "max": [
        1707,
        811,
        0
      ],
      "min": [
        -1707,
        -811,
        0
      ],
      "type": "VEC3"
    },
    {
      "bufferView": 1,
      "componentType": 5126,
      "count": 4,
      "max": [
        0,
        0,
        1
      ],
      "min": [
        0,
        0,
        1
      ],
      "type": "VEC3"
    },
    {
      "bufferView": 2,
      "componentType": 5126,
      "count": 4,
      "max": [
        1,
        1
      ],
      "min": [
        0,
        0
      ],
      "type": "VEC2"
    },
    {
      "bufferView": 3,
      "componentType": 5125,
      "count": 6,
      "max": [
        3
      ],
      "min": [
        0
      ],
      "type": "SCALAR"
    },
    {
      "bufferView": 4,
      "componentType": 5126,
      "count": 1164,
      "max": [
        0.35820895433425903,
        1.0229052305221558,
        0.005398052278906107
      ],
      "min": [
        -0.35820895433425903,
        0.02290511131286621,
        0.001373126171529293
      ],
      "type": "VEC3"
    },
    {
      "bufferView": 5,
      "componentType": 5126,
      "count": 1164,
      "max": [
        1,
        1,
        1
      ],
      "min": [
        -1,
        -1,
        -1
      ],
      "type": "VEC3"
    },
    {
      "bufferView": 6,
      "componentType": 5126,
      "count": 1164,
      "max": [
        1,
        0.7572484612464905
      ],
      "min": [
        0.0008288687095046043,
        0.0022159814834594727
      ],
      "type": "VEC2"
    },
    {
      "bufferView": 7,
      "componentType": 5123,
      "count": 4107,
      "max": [
        1163
      ],
      "min": [
        0
      ],
      "type": "SCALAR"
    },
    {
      "bufferView": 8,
      "componentType": 5126,
      "count": 1129,
      "max": [
        0.06820666044950485,
        1.2293701171875,
        0.03205162659287453
      ],
      "min": [
        -0.06900214403867722,
        1.1182847023010254,
        -0.031905218958854675
      ],
      "type": "VEC3"
    },
    {
      "bufferView": 9,
      "componentType": 5126,
      "count": 1129,
      "max": [
        0.9866361618041992,
        0.9999806880950928,
        0.9908397197723389
      ],
      "min": [
        -0.9866361618041992,
        -0.9990124106407166,
        -0.9909759163856506
      ],
      "type": "VEC3"
    },
    {
      "bufferView": 10,
      "componentType": 5126,
      "count": 1129,
      "max": [
        1.0044538974761963,
        1
      ],
      "min": [
        -0.0044538769870996475,
        -0.040865302085876465
      ],
      "type": "VEC2"
    },
    {
      "bufferView": 11,
      "componentType": 5123,
      "count": 3576,
      "max": [
        1128
      ],
      "min": [
        0
      ],
      "type": "SCALAR"
    },
    {
      "bufferView": 12,
      "componentType": 5126,
      "count": 1721,
      "max": [
        0.024095552042126656,
        1.1183339357376099,
        0.04557735472917557
      ],
      "min": [
        -0.02497350051999092,
        0.9323668479919434,
        -0.044764820486307144
      ],
      "type": "VEC3"
    },
    {
      "bufferView": 13,
      "componentType": 5126,
      "count": 1721,
      "max": [
        0.9996973872184753,
        0.9998471736907959,
        0.988928496837616
      ],
      "min": [
        -0.9976668953895569,
        -0.9998417496681213,
        -0.992756187915802
      ],
      "type": "VEC3"
    },
    {
      "bufferView": 14,
      "componentType": 5126,
      "count": 1721,
      "max": [
        1.19272780418396,
        1.7248313426971436
      ],
      "min": [
        -0.051431816071271896,
        -0.07117509841918945
      ],
      "type": "VEC2"
    },
    {
      "bufferView": 15,
      "componentType": 5123,
      "count": 7164,
      "max": [
        1720
      ],
      "min": [
        0
      ],
      "type": "SCALAR"
    }
  ],
  "meshes": [
    {
      "primitives": [
        {
          "mode": 4,
          "attributes": {
            "POSITION": 0,
            "NORMAL": 1,
            "TEXCOORD_0": 2
          },
          "extras": {
            "shape": {
              "points": [
                -1707,
                811,
                -1707,
                811,
                -1707,
                811,
                0,
                1707,
                811,
                1707,
                811,
                1707,
                811,
                0,
                1707,
                -811,
                1707,
                -811,
                1707,
                -811,
                0,
                -1707,
                -811,
                -1707,
                -811,
                -1707,
                -811,
                0
              ],
              "shapeHoles": [],
              "isClosed": true,
              "roundness": 0
            },
            "parameters": {
              "width": 3414,
              "depth": 0,
              "cornerRadius": [
                0,
                0,
                0,
                0
              ],
              "cornerType": 0,
              "extrudeBevelSize": 0,
              "extrudeBevelSegments": 1,
              "height": 1622,
              "type": "RectangleGeometry"
            },
            "ui": {
              "enabledIndieCorners": false
            },
            "type": "RectangleGeometry"
          },
          "indices": 3
        }
      ]
    },
    {
      "primitives": [
        {
          "mode": 4,
          "attributes": {
            "POSITION": 4,
            "NORMAL": 5,
            "TEXCOORD_0": 6
          },
          "extras": {
            "parameters": {
              "width": 0.7164179086685181,
              "height": 1.0000001192092896,
              "depth": 0.004024926107376814,
              "subdivisions": 0
            },
            "type": "NonParametricGeometry"
          },
          "indices": 7
        }
      ]
    },
    {
      "primitives": [
        {
          "mode": 4,
          "attributes": {
            "POSITION": 8,
            "NORMAL": 9,
            "TEXCOORD_0": 10
          },
          "extras": {
            "parameters": {
              "width": 0.13720880448818207,
              "height": 0.11108541488647461,
              "depth": 0.0639568455517292,
              "subdivisions": 0
            },
            "type": "NonParametricGeometry"
          },
          "indices": 11
        }
      ]
    },
    {
      "primitives": [
        {
          "mode": 4,
          "attributes": {
            "POSITION": 12,
            "NORMAL": 13,
            "TEXCOORD_0": 14
          },
          "extras": {
            "parameters": {
              "width": 0.04906905256211758,
              "height": 0.1859670877456665,
              "depth": 0.09034217521548271,
              "subdivisions": 0
            },
            "type": "NonParametricGeometry"
          },
          "indices": 15
        }
      ]
    }
  ],
  "cameras": [
    {
      "type": "perspective",
      "perspective": {
        "aspectRatio": 2.1048088779284835,
        "yfov": 0.7853981633974483,
        "zfar": 100000,
        "znear": 70
      }
    }
  ]
}